<svg width="53" height="36" viewBox="0 0 53 36" fill="none" xmlns="http://www.w3.org/2000/svg">
<path d="M15.1094 35.9141C10.7031 35.9141 7.23438 34.3281 4.70312 31.1562C2.17188 27.9844 0.90625 23.6016 0.90625 18.0078C0.90625 12.4453 2.17188 8.10156 4.70312 4.97656C7.25 1.83594 10.7188 0.265625 15.1094 0.265625C19.5 0.265625 22.9609 1.83594 25.4922 4.97656C28.0391 8.10156 29.3125 12.4531 29.3125 18.0312C29.3125 23.5938 28.0391 27.9688 25.4922 31.1562C22.9609 34.3281 19.5 35.9141 15.1094 35.9141ZM11.1016 26.3984C12.0859 28.3359 13.4219 29.3047 15.1094 29.3047C16.7969 29.3047 18.1328 28.3359 19.1172 26.3984C20.1016 24.4609 20.5938 21.6641 20.5938 18.0078C20.5938 14.3828 20.1016 11.625 19.1172 9.73438C18.1328 7.82813 16.7969 6.875 15.1094 6.875C13.4219 6.875 12.0859 7.82813 11.1016 9.73438C10.1328 11.625 9.64844 14.3828 9.64844 18.0078C9.64844 21.6641 10.1328 24.4609 11.1016 26.3984ZM43.6797 35V8.9375H43.2344L35.0781 14.4453V7.03906L43.6797 1.17969H52.2812V35H43.6797Z" fill="#6D90D3" fill-opacity="0.4"/>
</svg>
