<svg width="62" height="36" viewBox="0 0 62 36" fill="none" xmlns="http://www.w3.org/2000/svg">
<path d="M15.1094 35.9141C10.7031 35.9141 7.23438 34.3281 4.70312 31.1562C2.17188 27.9844 0.90625 23.6016 0.90625 18.0078C0.90625 12.4453 2.17188 8.10156 4.70312 4.97656C7.25 1.83594 10.7188 0.265625 15.1094 0.265625C19.5 0.265625 22.9609 1.83594 25.4922 4.97656C28.0391 8.10156 29.3125 12.4531 29.3125 18.0312C29.3125 23.5938 28.0391 27.9688 25.4922 31.1562C22.9609 34.3281 19.5 35.9141 15.1094 35.9141ZM11.1016 26.3984C12.0859 28.3359 13.4219 29.3047 15.1094 29.3047C16.7969 29.3047 18.1328 28.3359 19.1172 26.3984C20.1016 24.4609 20.5938 21.6641 20.5938 18.0078C20.5938 14.3828 20.1016 11.625 19.1172 9.73438C18.1328 7.82813 16.7969 6.875 15.1094 6.875C13.4219 6.875 12.0859 7.82813 11.1016 9.73438C10.1328 11.625 9.64844 14.3828 9.64844 18.0078C9.64844 21.6641 10.1328 24.4609 11.1016 26.3984ZM34.9609 11.5391C34.9609 8.17969 36.1641 5.46094 38.5703 3.38281C40.9766 1.30469 44.1406 0.265625 48.0625 0.265625C51.8438 0.265625 54.8906 1.1875 57.2031 3.03125C59.5312 4.875 60.6953 7.29688 60.6953 10.2969C60.6953 12.1719 60.0781 14.0469 58.8438 15.9219C57.6094 17.7812 55.4922 20.0469 52.4922 22.7188L46.9141 27.8516V28.2969H61.1641V35H35.4531V29.2578L46.1406 19.2031C48.6094 16.9219 50.2656 15.2188 51.1094 14.0938C51.9531 12.9688 52.375 11.9062 52.375 10.9062C52.375 9.65625 51.9531 8.65625 51.1094 7.90625C50.2656 7.14062 49.1484 6.75781 47.7578 6.75781C46.3047 6.75781 45.1172 7.20312 44.1953 8.09375C43.2891 8.98438 42.8359 10.125 42.8359 11.5156V11.6797H34.9609V11.5391Z" fill="#6D90D3" fill-opacity="0.4"/>
</svg>
