<svg width="62" height="36" viewBox="0 0 62 36" fill="none" xmlns="http://www.w3.org/2000/svg">
<path d="M15.1094 35.9141C10.7031 35.9141 7.23438 34.3281 4.70312 31.1562C2.17188 27.9844 0.90625 23.6016 0.90625 18.0078C0.90625 12.4453 2.17188 8.10156 4.70312 4.97656C7.25 1.83594 10.7188 0.265625 15.1094 0.265625C19.5 0.265625 22.9609 1.83594 25.4922 4.97656C28.0391 8.10156 29.3125 12.4531 29.3125 18.0312C29.3125 23.5938 28.0391 27.9688 25.4922 31.1562C22.9609 34.3281 19.5 35.9141 15.1094 35.9141ZM11.1016 26.3984C12.0859 28.3359 13.4219 29.3047 15.1094 29.3047C16.7969 29.3047 18.1328 28.3359 19.1172 26.3984C20.1016 24.4609 20.5938 21.6641 20.5938 18.0078C20.5938 14.3828 20.1016 11.625 19.1172 9.73438C18.1328 7.82813 16.7969 6.875 15.1094 6.875C13.4219 6.875 12.0859 7.82813 11.1016 9.73438C10.1328 11.625 9.64844 14.3828 9.64844 18.0078C9.64844 21.6641 10.1328 24.4609 11.1016 26.3984ZM43.8203 20.6797V14.75H47.9688C49.4062 14.75 50.5625 14.3828 51.4375 13.6484C52.3125 12.8984 52.75 11.9062 52.75 10.6719C52.75 9.4375 52.3125 8.46875 51.4375 7.76562C50.5781 7.04687 49.3984 6.6875 47.8984 6.6875C46.4297 6.6875 45.2344 7.09375 44.3125 7.90625C43.3906 8.70312 42.9062 9.76562 42.8594 11.0938H35.0547C35.1172 7.78125 36.3203 5.14844 38.6641 3.19531C41.0234 1.24219 44.1641 0.265625 48.0859 0.265625C51.8359 0.265625 54.8828 1.125 57.2266 2.84375C59.5703 4.54688 60.7422 6.76562 60.7422 9.5C60.7422 11.4375 60.1484 13.1094 58.9609 14.5156C57.7891 15.9219 56.25 16.8047 54.3438 17.1641V17.6094C56.6719 17.8594 58.5234 18.7031 59.8984 20.1406C61.2891 21.5625 61.9844 23.3594 61.9844 25.5312C61.9844 28.5938 60.6797 31.0938 58.0703 33.0312C55.4609 34.9531 52.0859 35.9141 47.9453 35.9141C43.9922 35.9141 40.7891 34.9219 38.3359 32.9375C35.8828 30.9375 34.5781 28.2812 34.4219 24.9688H42.625C42.6875 26.2656 43.2031 27.2891 44.1719 28.0391C45.1562 28.7734 46.4609 29.1406 48.0859 29.1406C49.6172 29.1406 50.8594 28.75 51.8125 27.9688C52.7656 27.1719 53.2422 26.1406 53.2422 24.875C53.2422 23.5781 52.7734 22.5547 51.8359 21.8047C50.8984 21.0547 49.6094 20.6797 47.9688 20.6797H43.8203Z" fill="#6D90D3" fill-opacity="0.4"/>
</svg>
