<svg width="85" height="49" viewBox="0 0 85 49" fill="none" xmlns="http://www.w3.org/2000/svg">
<path d="M19.8125 48.2188C13.9375 48.2188 9.3125 46.1042 5.9375 41.875C2.5625 37.6458 0.875 31.8021 0.875 24.3438C0.875 16.9271 2.5625 11.1354 5.9375 6.96875C9.33333 2.78125 13.9583 0.6875 19.8125 0.6875C25.6667 0.6875 30.2812 2.78125 33.6562 6.96875C37.0521 11.1354 38.75 16.9375 38.75 24.375C38.75 31.7917 37.0521 37.625 33.6562 41.875C30.2812 46.1042 25.6667 48.2188 19.8125 48.2188ZM14.4688 35.5312C15.7812 38.1146 17.5625 39.4062 19.8125 39.4062C22.0625 39.4062 23.8438 38.1146 25.1562 35.5312C26.4688 32.9479 27.125 29.2188 27.125 24.3438C27.125 19.5104 26.4688 15.8333 25.1562 13.3125C23.8438 10.7708 22.0625 9.5 19.8125 9.5C17.5625 9.5 15.7812 10.7708 14.4688 13.3125C13.1771 15.8333 12.5312 19.5104 12.5312 24.3438C12.5312 29.2188 13.1771 32.9479 14.4688 35.5312ZM68.25 47V39.6875H46.125V30.0938C49.9583 22.7604 55.6458 13.3646 63.1875 1.90625H79.0938V30.75H84.7188V39.6875H79.0938V47H68.25ZM56.0312 30.5938V31.1562H68.5312V10.0938H67.9688C64.3021 15.7396 60.3229 22.5729 56.0312 30.5938Z" fill="#6D90D3" fill-opacity="0.4"/>
</svg>
