<svg width="32" height="24" viewBox="0 0 32 24" fill="none" xmlns="http://www.w3.org/2000/svg">
<path d="M32 21.9744C32.0023 22.393 31.8729 22.8018 31.63 23.143C31.4792 23.3599 31.2868 23.5447 31.0641 23.6868C30.8413 23.8289 30.5926 23.9256 30.3322 23.9711C30.0718 24.0166 29.805 24.0101 29.5472 23.952C29.2893 23.8939 29.0456 23.7853 28.83 23.6325L16 14.4731L3.16999 23.6025C2.95442 23.7553 2.71067 23.8639 2.45282 23.922C2.19498 23.9801 1.92816 23.9866 1.66779 23.9411C1.40741 23.8956 1.15866 23.799 0.935897 23.6569C0.713138 23.5147 0.520794 23.3299 0.369988 23.1131C0.133016 22.7802 0.0038824 22.3828 -1.23426e-05 21.9744C-0.0027269 21.6489 0.0742028 21.3278 0.224085 21.0388C0.373968 20.7498 0.592265 20.5018 0.859988 20.3163L12.52 11.986L0.859988 3.68564C0.588006 3.49731 0.367064 3.24451 0.21697 2.9499C0.0668752 2.65529 -0.00768009 2.32808 -1.23426e-05 1.9976C0.0038824 1.58919 0.133016 1.19178 0.369988 0.858927C0.520794 0.642092 0.713138 0.457266 0.935897 0.315136C1.15866 0.173007 1.40741 0.0763931 1.66779 0.0308809C1.92816 -0.0146313 2.19498 -0.00813901 2.45282 0.0499824C2.71067 0.108104 2.95442 0.216701 3.16999 0.369496L16 9.49889L28.83 0.369496C29.0456 0.216701 29.2893 0.108104 29.5472 0.0499824C29.805 -0.00813901 30.0718 -0.0146313 30.3322 0.0308809C30.5926 0.0763931 30.8413 0.173007 31.0641 0.315136C31.2868 0.457266 31.4792 0.642092 31.63 0.858927C31.867 1.19178 31.9961 1.58919 32 1.9976C32.0027 2.32304 31.9258 2.64422 31.7759 2.93319C31.626 3.22216 31.4077 3.47018 31.14 3.65568L19.48 11.986L31.14 20.2863C31.412 20.4747 31.6329 20.7275 31.783 21.0221C31.9331 21.3167 32.0077 21.6439 32 21.9744Z" fill="#D8D8DB"/>
</svg>
