<svg width="112" height="24" viewBox="0 0 112 24" fill="none" xmlns="http://www.w3.org/2000/svg">
<g clip-path="url(#clip0_760_2542)">
<path d="M17.0909 0V4.90909H10.9091V24H6.18182V4.90909H0V0H17.0909Z" fill="#D8D8DB"/>
<path d="M38.2945 4.72727H21.8182V0H33.5673L38.2945 4.72727Z" fill="#D8D8DB"/>
<path d="M21.8182 19.2729H38.84L34.1127 24.0002H21.8182V19.2729Z" fill="#D8D8DB"/>
<path d="M45.84 12.2728L43.5673 14.5455H21.8182V9.45459H43.0218L45.84 12.2728Z" fill="#D8D8DB"/>
<path d="M58.7764 12.2727L70.5036 24H64.3636L55.7273 15.3636L47.0909 24H40.7964L52.5236 12.2727L40.2509 0H46.9091L55.7273 8.81818L64.5455 0H71.0491L58.7764 12.2727Z" fill="#D8D8DB"/>
<path d="M89.6363 0V4.72727H73.0054L77.7327 0H89.6363Z" fill="#D8D8DB"/>
<path d="M89.6364 9.45459V14.5455H67.7327L65.46 12.2728L68.2782 9.45459H89.6364Z" fill="#D8D8DB"/>
<path d="M72.46 19.2729H89.6364V24.0002H77.1873L72.46 19.2729Z" fill="#D8D8DB"/>
<path d="M111.273 0V24H106.545L99.2727 10.3636V24H94.3636V0H99.2727L106.545 13.6364V0H111.273Z" fill="#D8D8DB"/>
</g>
<defs>
<clipPath id="clip0_760_2542">
<rect width="111.273" height="24" fill="white"/>
</clipPath>
</defs>
</svg>
