<svg width="32" height="32" viewBox="0 0 32 32" fill="none" xmlns="http://www.w3.org/2000/svg">
<path d="M31.3991 0.600934C31.5893 0.786944 31.7404 1.00909 31.8436 1.25432C31.9468 1.49955 32 1.76293 32 2.02899C32 2.29505 31.9468 2.55843 31.8436 2.80367C31.7404 3.0489 31.5893 3.27104 31.3991 3.45705L18.8361 16L31.3991 28.5429C31.5866 28.7305 31.7354 28.9531 31.8369 29.1981C31.9383 29.4432 31.9906 29.7058 31.9906 29.971C31.9906 30.2362 31.9383 30.4988 31.8369 30.7439C31.7354 30.9889 31.5866 31.2115 31.3991 31.3991C31.2115 31.5866 30.9889 31.7354 30.7439 31.8369C30.4988 31.9383 30.2362 31.9906 29.971 31.9906C29.7058 31.9906 29.4432 31.9383 29.1981 31.8369C28.9531 31.7354 28.7305 31.5866 28.5429 31.3991L16 18.8361L3.45705 31.3991C3.27104 31.5893 3.0489 31.7404 2.80367 31.8436C2.55843 31.9468 2.29505 32 2.02899 32C1.76293 32 1.49955 31.9468 1.25432 31.8436C1.00909 31.7404 0.786944 31.5893 0.600934 31.3991C0.410701 31.2131 0.259549 30.9909 0.156353 30.7457C0.0531583 30.5004 0 30.2371 0 29.971C0 29.7049 0.0531583 29.4416 0.156353 29.1963C0.259549 28.9511 0.410701 28.729 0.600934 28.5429L13.1639 16L0.600934 3.45705C0.410701 3.27104 0.259549 3.0489 0.156353 2.80367C0.0531583 2.55843 0 2.29505 0 2.02899C0 1.76293 0.0531583 1.49955 0.156353 1.25432C0.259549 1.00909 0.410701 0.786944 0.600934 0.600934C0.786944 0.410701 1.00909 0.259549 1.25432 0.156353C1.49955 0.0531583 1.76293 0 2.02899 0C2.29505 0 2.55843 0.0531583 2.80367 0.156353C3.0489 0.259549 3.27104 0.410701 3.45705 0.600934L16 13.1639L28.5429 0.600934C28.729 0.410701 28.9511 0.259549 29.1963 0.156353C29.4416 0.0531583 29.7049 0 29.971 0C30.2371 0 30.5004 0.0531583 30.7457 0.156353C30.9909 0.259549 31.2131 0.410701 31.3991 0.600934Z" fill="white"/>
</svg>
