<svg width="32" height="32" viewBox="0 0 32 32" fill="none" xmlns="http://www.w3.org/2000/svg">
<path d="M0.000144878 29.999C0.00190816 30.297 0.0701367 30.5909 0.199843 30.859C0.294133 31.0939 0.436296 31.3064 0.617252 31.4831C0.798208 31.6599 1.01398 31.7968 1.25077 31.8853C1.48757 31.9737 1.74019 32.0118 1.99249 31.9969C2.24478 31.9821 2.49122 31.9147 2.71604 31.799L30.8735 17.799C31.2111 17.6353 31.4959 17.3796 31.6951 17.0612C31.8943 16.7429 32 16.3748 32 15.999C32 15.6233 31.8943 15.2552 31.6951 14.9369C31.4959 14.6185 31.2111 14.3628 30.8735 14.199L2.71604 0.199045C2.49122 0.0834177 2.24478 0.0160278 1.99249 0.00118073C1.74019 -0.0136664 1.48757 0.0243558 1.25077 0.112818C1.01398 0.20128 0.798208 0.338238 0.617252 0.51494C0.436296 0.691642 0.294133 0.904204 0.199843 1.13905C0.0701367 1.40723 0.00190816 1.70106 0.000144878 1.99905C-0.00431254 2.36969 0.0941643 2.73428 0.284584 3.05212C0.475004 3.36997 0.749874 3.62856 1.07851 3.79905L25.0423 15.699C25.0974 15.7248 25.144 15.7658 25.1767 15.8171C25.2094 15.8685 25.2267 15.9281 25.2267 15.989C25.2267 16.05 25.2094 16.1096 25.1767 16.161C25.144 16.2123 25.0974 16.2533 25.0423 16.279L1.07851 28.279C0.761798 28.4432 0.494749 28.6893 0.305113 28.9918C0.115477 29.2942 0.0101742 29.642 0.000144878 29.999Z" fill="#94B8FF"/>
</svg>
