<svg width="16" height="16" viewBox="0 0 16 16" fill="none" xmlns="http://www.w3.org/2000/svg">
<path d="M15.9999 15C15.999 15.149 15.9649 15.2959 15.9001 15.43C15.8529 15.5474 15.7819 15.6537 15.6914 15.7421C15.6009 15.8304 15.493 15.8989 15.3746 15.9431C15.2562 15.9874 15.1299 16.0064 15.0038 15.9989C14.8776 15.9915 14.7544 15.9578 14.642 15.9L0.563259 8.90001C0.394443 8.81813 0.252071 8.69027 0.152453 8.5311C0.0528353 8.37193 0 8.18787 0 8.00001C0 7.81215 0.0528353 7.6281 0.152453 7.46892C0.252071 7.30975 0.394443 7.1819 0.563259 7.10001L14.642 0.100011C14.7544 0.0421972 14.8776 0.00850219 15.0038 0.00107864C15.1299 -0.0063449 15.2562 0.0126662 15.3746 0.0568974C15.493 0.101129 15.6009 0.169607 15.6914 0.257958C15.7819 0.346309 15.8529 0.45259 15.9001 0.570011C15.9649 0.704104 15.999 0.851018 15.9999 1.00001C16.0022 1.18533 15.9529 1.36763 15.8577 1.52655C15.7625 1.68547 15.6251 1.81477 15.4607 1.90001L3.47885 7.85001C3.4513 7.86288 3.42798 7.88337 3.41164 7.90905C3.39531 7.93474 3.38663 7.96456 3.38663 7.99501C3.38663 8.02546 3.39531 8.05528 3.41164 8.08097C3.42798 8.10665 3.4513 8.12714 3.47885 8.14001L15.4607 14.14C15.6191 14.2221 15.7526 14.3451 15.8474 14.4964C15.9423 14.6476 15.9949 14.8215 15.9999 15Z" fill="#94B8FF"/>
</svg>
