<svg width="32" height="32" viewBox="0 0 32 32" fill="none" xmlns="http://www.w3.org/2000/svg">
<path d="M31.9999 30C31.9981 30.298 31.9299 30.5918 31.8002 30.86C31.7059 31.0949 31.5637 31.3074 31.3827 31.4841C31.2018 31.6608 30.986 31.7978 30.7492 31.8862C30.5124 31.9747 30.2598 32.0127 30.0075 31.9979C29.7552 31.983 29.5088 31.9156 29.284 31.8L1.12652 17.8C0.788886 17.6363 0.504142 17.3805 0.304906 17.0622C0.105671 16.7439 0 16.3757 0 16C0 15.6243 0.105671 15.2562 0.304906 14.9378C0.504142 14.6195 0.788886 14.3638 1.12652 14.2L29.284 0.200022C29.5088 0.0843943 29.7552 0.0170044 30.0075 0.00215729C30.2598 -0.0126898 30.5124 0.0253324 30.7492 0.113795C30.986 0.202257 31.2018 0.339214 31.3827 0.515917C31.5637 0.692619 31.7059 0.90518 31.8002 1.14002C31.9299 1.40821 31.9981 1.70204 31.9999 2.00002C32.0043 2.37066 31.9058 2.73525 31.7154 3.0531C31.525 3.37095 31.2501 3.62954 30.9215 3.80002L6.9577 15.7C6.90259 15.7258 6.85596 15.7667 6.82329 15.8181C6.79062 15.8695 6.77326 15.9291 6.77326 15.99C6.77326 16.0509 6.79062 16.1106 6.82329 16.1619C6.85596 16.2133 6.90259 16.2543 6.9577 16.28L30.9215 28.28C31.2382 28.4442 31.5052 28.6903 31.6949 28.9927C31.8845 29.2952 31.9898 29.643 31.9999 30Z" fill="#94B8FF"/>
</svg>
