<svg width="64" height="16" viewBox="0 0 64 16" fill="none" xmlns="http://www.w3.org/2000/svg">
<rect y="7" width="55" height="2" rx="1" fill="#94B8FF"/>
<g clip-path="url(#clip0_760_1031)">
<path d="M48 15C48.0009 15.149 48.0351 15.2959 48.1 15.43C48.1472 15.5474 48.2184 15.6537 48.309 15.7421C48.3996 15.8304 48.5077 15.8989 48.6263 15.9431C48.7448 15.9874 48.8713 16.0064 48.9977 15.9989C49.124 15.9915 49.2474 15.9578 49.36 15.9L63.46 8.90001C63.6291 8.81813 63.7717 8.69027 63.8714 8.5311C63.9712 8.37193 64.0241 8.18787 64.0241 8.00001C64.0241 7.81215 63.9712 7.6281 63.8714 7.46892C63.7717 7.30975 63.6291 7.1819 63.46 7.10001L49.36 0.100011C49.2474 0.0421972 49.124 0.00850219 48.9977 0.00107864C48.8713 -0.0063449 48.7448 0.0126662 48.6263 0.0568974C48.5077 0.101129 48.3996 0.169607 48.309 0.257958C48.2184 0.346309 48.1472 0.45259 48.1 0.570011C48.0351 0.704104 48.0009 0.851018 48 1.00001C47.9978 1.18533 48.0471 1.36763 48.1424 1.52655C48.2378 1.68547 48.3754 1.81477 48.54 1.90001L60.54 7.85001C60.5676 7.86288 60.591 7.88337 60.6073 7.90905C60.6237 7.93474 60.6324 7.96456 60.6324 7.99501C60.6324 8.02546 60.6237 8.05528 60.6073 8.08097C60.591 8.10665 60.5676 8.12714 60.54 8.14001L48.54 14.14C48.3814 14.2221 48.2477 14.3451 48.1527 14.4964C48.0578 14.6476 48.005 14.8215 48 15Z" fill="#94B8FF"/>
</g>
<defs>
<clipPath id="clip0_760_1031">
<rect width="16" height="16" fill="white" transform="translate(48)"/>
</clipPath>
</defs>
</svg>
