<svg width="112" height="16" viewBox="0 0 112 16" fill="none" xmlns="http://www.w3.org/2000/svg">
<g clip-path="url(#clip0_760_1039)">
<path d="M80.8102 0.598685L82.1063 4.85771C82.1565 5.03065 82.2621 5.18261 82.4072 5.2906C82.5522 5.39859 82.7287 5.45672 82.91 5.45617H87.21C87.3798 5.47246 87.5411 5.53771 87.6739 5.64388C87.8068 5.75005 87.9055 5.8925 87.9578 6.05366C88.0102 6.21483 88.0139 6.38768 87.9685 6.55091C87.9231 6.71413 87.8305 6.8606 87.7023 6.97227L84.206 9.59551C84.0534 9.70673 83.9407 9.86368 83.8847 10.0432C83.8286 10.2228 83.8321 10.4155 83.8946 10.5929L85.2609 14.832C85.3344 15.002 85.349 15.1913 85.3027 15.3705C85.2564 15.5496 85.1517 15.7085 85.0049 15.8224C84.858 15.9363 84.6774 15.9987 84.4911 16C84.3048 16.0013 84.1233 15.9413 83.975 15.8295L80.5088 13.1164C80.3655 13.0048 80.1886 12.9441 80.0065 12.9441C79.8243 12.9441 79.6474 13.0048 79.5041 13.1164L76.0581 15.7796C75.9097 15.8914 75.7282 15.9514 75.5419 15.9501C75.3556 15.9488 75.175 15.8864 75.0282 15.7725C74.8814 15.6587 74.7767 15.4998 74.7303 15.3206C74.684 15.1415 74.6987 14.9521 74.7721 14.7821L76.1385 10.563C76.201 10.3856 76.2045 10.1929 76.1484 10.0133C76.0923 9.83376 75.9797 9.67681 75.827 9.56559L72.3307 6.97227C72.192 6.863 72.09 6.71449 72.0382 6.5464C71.9864 6.37831 71.9873 6.19857 72.0407 6.03097C72.094 5.86336 72.1974 5.7158 72.3371 5.60782C72.4768 5.49983 72.6463 5.43652 72.823 5.42625H77.123C77.3043 5.42679 77.4809 5.36867 77.6259 5.26068C77.7709 5.15269 77.8766 5.00072 77.9268 4.82779L79.2228 0.598685C79.2711 0.426512 79.3748 0.274765 79.5181 0.166649C79.6615 0.0585333 79.8365 0 80.0165 0C80.1965 0 80.3716 0.0585333 80.5149 0.166649C80.6583 0.274765 80.762 0.426512 80.8102 0.598685Z" fill="#6D90D3"/>
</g>
<g clip-path="url(#clip1_760_1039)">
<path d="M8.81022 0.598685L10.1063 4.85771C10.1565 5.03065 10.2621 5.18261 10.4072 5.2906C10.5522 5.39859 10.7287 5.45672 10.91 5.45617H15.21C15.3798 5.47246 15.5411 5.53771 15.6739 5.64388C15.8068 5.75005 15.9055 5.8925 15.9578 6.05366C16.0102 6.21483 16.0139 6.38768 15.9685 6.55091C15.9231 6.71413 15.8305 6.8606 15.7023 6.97227L12.206 9.59551C12.0534 9.70673 11.9407 9.86368 11.8847 10.0432C11.8286 10.2228 11.8321 10.4155 11.8946 10.5929L13.2609 14.832C13.3344 15.002 13.349 15.1913 13.3027 15.3705C13.2564 15.5496 13.1517 15.7085 13.0049 15.8224C12.858 15.9363 12.6774 15.9987 12.4911 16C12.3048 16.0013 12.1233 15.9413 11.975 15.8295L8.50882 13.1164C8.36551 13.0048 8.18863 12.9441 8.00648 12.9441C7.82433 12.9441 7.64744 13.0048 7.50414 13.1164L4.05809 15.7796C3.90971 15.8914 3.72822 15.9514 3.54193 15.9501C3.35563 15.9488 3.175 15.8864 3.02819 15.7725C2.88138 15.6587 2.77665 15.4998 2.73033 15.3206C2.684 15.1415 2.69869 14.9521 2.7721 14.7821L4.13846 10.563C4.20098 10.3856 4.20446 10.1929 4.1484 10.0133C4.09233 9.83376 3.97967 9.67681 3.82701 9.56559L0.330728 6.97227C0.192036 6.863 0.0900405 6.71449 0.0382417 6.5464C-0.0135571 6.37831 -0.0127161 6.19857 0.0406533 6.03097C0.0940228 5.86336 0.197404 5.7158 0.337112 5.60782C0.47682 5.49983 0.646266 5.43652 0.823021 5.42625H5.12305C5.30433 5.42679 5.48086 5.36867 5.62589 5.26068C5.77092 5.15269 5.87655 5.00072 5.92679 4.82779L7.22283 0.598685C7.27107 0.426512 7.37479 0.274765 7.51812 0.166649C7.66146 0.0585333 7.83651 0 8.01652 0C8.19653 0 8.37159 0.0585333 8.51492 0.166649C8.65825 0.274765 8.76197 0.426512 8.81022 0.598685Z" fill="#6D90D3"/>
</g>
<g clip-path="url(#clip2_760_1039)">
<path d="M32.8102 0.598685L34.1063 4.85771C34.1565 5.03065 34.2621 5.18261 34.4072 5.2906C34.5522 5.39859 34.7287 5.45672 34.91 5.45617H39.21C39.3798 5.47246 39.5411 5.53771 39.6739 5.64388C39.8068 5.75005 39.9055 5.8925 39.9578 6.05366C40.0102 6.21483 40.0139 6.38768 39.9685 6.55091C39.9231 6.71413 39.8305 6.8606 39.7023 6.97227L36.206 9.59551C36.0534 9.70673 35.9407 9.86368 35.8847 10.0432C35.8286 10.2228 35.8321 10.4155 35.8946 10.5929L37.2609 14.832C37.3344 15.002 37.349 15.1913 37.3027 15.3705C37.2564 15.5496 37.1517 15.7085 37.0049 15.8224C36.858 15.9363 36.6774 15.9987 36.4911 16C36.3048 16.0013 36.1233 15.9413 35.975 15.8295L32.5088 13.1164C32.3655 13.0048 32.1886 12.9441 32.0065 12.9441C31.8243 12.9441 31.6474 13.0048 31.5041 13.1164L28.0581 15.7796C27.9097 15.8914 27.7282 15.9514 27.5419 15.9501C27.3556 15.9488 27.175 15.8864 27.0282 15.7725C26.8814 15.6587 26.7767 15.4998 26.7303 15.3206C26.684 15.1415 26.6987 14.9521 26.7721 14.7821L28.1385 10.563C28.201 10.3856 28.2045 10.1929 28.1484 10.0133C28.0923 9.83376 27.9797 9.67681 27.827 9.56559L24.3307 6.97227C24.192 6.863 24.09 6.71449 24.0382 6.5464C23.9864 6.37831 23.9873 6.19857 24.0407 6.03097C24.094 5.86336 24.1974 5.7158 24.3371 5.60782C24.4768 5.49983 24.6463 5.43652 24.823 5.42625H29.123C29.3043 5.42679 29.4809 5.36867 29.6259 5.26068C29.7709 5.15269 29.8766 5.00072 29.9268 4.82779L31.2228 0.598685C31.2711 0.426512 31.3748 0.274765 31.5181 0.166649C31.6615 0.0585333 31.8365 0 32.0165 0C32.1965 0 32.3716 0.0585333 32.5149 0.166649C32.6583 0.274765 32.762 0.426512 32.8102 0.598685Z" fill="#6D90D3"/>
</g>
<g clip-path="url(#clip3_760_1039)">
<path d="M56.8102 0.598685L58.1063 4.85771C58.1565 5.03065 58.2621 5.18261 58.4072 5.2906C58.5522 5.39859 58.7287 5.45672 58.91 5.45617H63.21C63.3798 5.47246 63.5411 5.53771 63.6739 5.64388C63.8068 5.75005 63.9055 5.8925 63.9578 6.05366C64.0102 6.21483 64.0139 6.38768 63.9685 6.55091C63.9231 6.71413 63.8305 6.8606 63.7023 6.97227L60.206 9.59551C60.0534 9.70673 59.9407 9.86368 59.8847 10.0432C59.8286 10.2228 59.8321 10.4155 59.8946 10.5929L61.2609 14.832C61.3344 15.002 61.349 15.1913 61.3027 15.3705C61.2564 15.5496 61.1517 15.7085 61.0049 15.8224C60.858 15.9363 60.6774 15.9987 60.4911 16C60.3048 16.0013 60.1233 15.9413 59.975 15.8295L56.5088 13.1164C56.3655 13.0048 56.1886 12.9441 56.0065 12.9441C55.8243 12.9441 55.6474 13.0048 55.5041 13.1164L52.0581 15.7796C51.9097 15.8914 51.7282 15.9514 51.5419 15.9501C51.3556 15.9488 51.175 15.8864 51.0282 15.7725C50.8814 15.6587 50.7767 15.4998 50.7303 15.3206C50.684 15.1415 50.6987 14.9521 50.7721 14.7821L52.1385 10.563C52.201 10.3856 52.2045 10.1929 52.1484 10.0133C52.0923 9.83376 51.9797 9.67681 51.827 9.56559L48.3307 6.97227C48.192 6.863 48.09 6.71449 48.0382 6.5464C47.9864 6.37831 47.9873 6.19857 48.0407 6.03097C48.094 5.86336 48.1974 5.7158 48.3371 5.60782C48.4768 5.49983 48.6463 5.43652 48.823 5.42625H53.123C53.3043 5.42679 53.4809 5.36867 53.6259 5.26068C53.7709 5.15269 53.8766 5.00072 53.9268 4.82779L55.2228 0.598685C55.2711 0.426512 55.3748 0.274765 55.5181 0.166649C55.6615 0.0585333 55.8365 0 56.0165 0C56.1965 0 56.3716 0.0585333 56.5149 0.166649C56.6583 0.274765 56.762 0.426512 56.8102 0.598685Z" fill="#6D90D3"/>
</g>
<g clip-path="url(#clip4_760_1039)">
<path d="M111.645 6.98533C111.791 6.87804 111.9 6.728 111.957 6.55612C112.013 6.38424 112.014 6.19907 111.96 6.02641C111.906 5.85376 111.799 5.7022 111.655 5.59287C111.51 5.48353 111.335 5.42185 111.153 5.41643H106.86C106.679 5.41697 106.503 5.35874 106.358 5.25055C106.213 5.14236 106.108 4.99011 106.058 4.81685L104.764 0.599807C104.715 0.427311 104.612 0.27528 104.469 0.166961C104.326 0.058643 104.151 0 103.971 0C103.791 0 103.617 0.058643 103.473 0.166961C103.33 0.27528 103.227 0.427311 103.179 0.599807L101.885 4.86682C101.834 5.04007 101.729 5.19233 101.584 5.30052C101.439 5.40871 101.263 5.46694 101.082 5.4664H96.7888C96.6192 5.48272 96.4582 5.54809 96.3256 5.65446C96.1929 5.76082 96.0943 5.90354 96.0421 6.06501C95.9898 6.22648 95.9862 6.39965 96.0315 6.56318C96.0768 6.72671 96.1692 6.87346 96.2972 6.98533L99.7881 9.61349C99.9405 9.72492 100.053 9.88216 100.109 10.0621C100.165 10.242 100.161 10.435 100.099 10.6128L98.7348 14.8298C98.6615 15.0001 98.6468 15.1898 98.6931 15.3693C98.7394 15.5488 98.8439 15.708 98.9905 15.8221C99.1371 15.9361 99.3174 15.9987 99.5034 16C99.6895 16.0013 99.8707 15.9412 100.019 15.8291L103.48 13.161C103.623 13.0492 103.799 12.9884 103.981 12.9884C104.163 12.9884 104.34 13.0492 104.483 13.161L107.943 15.8291C108.092 15.9412 108.273 16.0013 108.459 16C108.645 15.9987 108.825 15.9361 108.972 15.8221C109.118 15.708 109.223 15.5488 109.269 15.3693C109.315 15.1898 109.301 15.0001 109.227 14.8298L107.843 10.5828C107.781 10.405 107.777 10.212 107.833 10.0321C107.889 9.85218 108.002 9.69494 108.154 9.58351L111.645 6.98533ZM107.171 12.8312C107.197 12.8947 107.201 12.965 107.183 13.0311C107.165 13.0972 107.125 13.1554 107.07 13.1965C107.015 13.2376 106.948 13.2594 106.879 13.2584C106.81 13.2574 106.743 13.2337 106.69 13.191L104.162 11.1924C104.106 11.1532 104.039 11.1322 103.971 11.1322C103.903 11.1322 103.836 11.1532 103.781 11.1924L101.253 13.191C101.199 13.2337 101.132 13.2574 101.063 13.2584C100.995 13.2594 100.927 13.2376 100.872 13.1965C100.817 13.1554 100.777 13.0972 100.759 13.0311C100.741 12.965 100.745 12.8947 100.771 12.8312L101.774 9.71342C101.796 9.64703 101.796 9.57545 101.775 9.509C101.753 9.44255 101.711 9.38466 101.654 9.34368L99.0859 7.44501C99.0324 7.40345 98.993 7.34652 98.973 7.28193C98.9531 7.21733 98.9535 7.14819 98.9743 7.08385C98.9951 7.01952 99.0353 6.96311 99.0893 6.92225C99.1434 6.88139 99.2087 6.85806 99.2765 6.85542H102.416C102.485 6.85553 102.552 6.83305 102.606 6.79148C102.66 6.74992 102.7 6.69159 102.717 6.62558L103.72 3.49778C103.738 3.43142 103.777 3.37266 103.831 3.33073C103.886 3.28879 103.952 3.26604 104.021 3.26604C104.09 3.26604 104.157 3.28879 104.211 3.33073C104.266 3.37266 104.305 3.43142 104.322 3.49778L105.275 6.62558C105.293 6.69159 105.332 6.74992 105.386 6.79148C105.441 6.83305 105.508 6.85553 105.576 6.85542H108.716C108.784 6.85806 108.849 6.88139 108.903 6.92225C108.957 6.96311 108.997 7.01952 109.018 7.08385C109.039 7.14819 109.039 7.21733 109.019 7.28193C108.999 7.34652 108.96 7.40345 108.906 7.44501L106.298 9.36366C106.242 9.40465 106.199 9.46254 106.178 9.52899C106.156 9.59544 106.156 9.66702 106.178 9.73341L107.171 12.8312Z" fill="#6D90D3"/>
</g>
<defs>
<clipPath id="clip0_760_1039">
<rect width="16" height="16" fill="white" transform="translate(72)"/>
</clipPath>
<clipPath id="clip1_760_1039">
<rect width="16" height="16" fill="white"/>
</clipPath>
<clipPath id="clip2_760_1039">
<rect width="16" height="16" fill="white" transform="translate(24)"/>
</clipPath>
<clipPath id="clip3_760_1039">
<rect width="16" height="16" fill="white" transform="translate(48)"/>
</clipPath>
<clipPath id="clip4_760_1039">
<rect width="16" height="16" fill="white" transform="translate(96)"/>
</clipPath>
</defs>
</svg>
